      <svg version="1.1" x="0px" y="0px" width="20px" height="20px" viewBox="0 0 20 20">
        <path d="M19.7,6.9c0,1,0,1.9,0,2.9c0,1,0.2,2.2,0,3.3c0,0.3-0.2,0.5-0.4,0.6c-1.6,0.9-3.1,2.1-4.7,3.1c-1.1,0.7-2.1,1.4-3.2,2.2
  c-0.3,0.2-1.2,1-1.6,0.9c-0.4,0.1-1.3-0.7-1.6-0.9c-1.1-0.7-2.1-1.4-3.2-2.2c-1.5-1-3-2.4-4.7-3.1c0,0-0.3-0.4-0.3-0.4
  c-0.3-0.9,0-2.3,0-3.3c0-1-0.3-2.4,0-3.3c0,0,0.3-0.4,0.3-0.4c0-0.1,1.1-0.7,1.2-0.8c1-0.7,2.1-1.4,3.1-2.1C5.9,2.7,6.9,2,8,1.3
  C8.5,1,9.1,0.5,9.7,0.2c0.5-0.2,1.4,0.6,1.8,0.9c1.1,0.7,2.2,1.4,3.3,2.1c1.5,1,3.2,2,4.6,3.1c0.1,0.1,0.3,0.2,0.3,0.3
  C19.7,6.7,19.8,6.7,19.7,6.9C19.8,6.8,19.8,6.8,19.7,6.9C19.7,6.8,19.7,6.8,19.7,6.9C19.7,6.8,19.7,6.8,19.7,6.9L19.7,6.9z
   M10.8,2.5c0,1.1,0,2.2,0,3.3c0,0.2-0.1,0.6,0.1,0.7c0.5,0.3,1,0.6,1.4,0.9c0.4,0.3,1.9,1.6,2.3,1.3c0.9-0.6,1.9-1.2,2.8-1.9
  C15.2,5.5,13,4,10.8,2.5L10.8,2.5L10.8,2.5z M9.1,2.6C6.9,4.1,4.7,5.5,2.5,7c0.9,0.6,1.8,1.2,2.7,1.8C5.7,9.2,6.9,8,7.4,7.6
  c0.5-0.3,1-0.7,1.4-1C9.1,6.5,9,6.3,9,6C9.1,4.8,9.1,3.7,9.1,2.6L9.1,2.6L9.1,2.6z M1.8,8.5c0,0.9,0,1.9,0,2.8
  c0.7-0.5,1.4-0.9,2.1-1.4C3.2,9.5,2.5,8.9,1.8,8.5L1.8,8.5z M9.1,17.3c0-1.1,0-2.3,0-3.4c0-0.3,0.1-0.5-0.1-0.6
  c-0.5-0.3-1-0.7-1.5-1c-0.5-0.3-1.7-1.5-2.2-1.2c-0.9,0.6-1.8,1.2-2.7,1.8C4.7,14.4,6.8,15.8,9.1,17.3L9.1,17.3z M9.9,12
  c1-0.7,2-1.3,3-2c-0.5-0.3-1-0.7-1.5-1c-0.3-0.2-1.1-1-1.5-1C9.6,8,8.7,8.8,8.4,9c-0.5,0.3-1,0.7-1.5,1C7.9,10.6,8.9,11.3,9.9,12
  L9.9,12L9.9,12z M10.8,17.3c2.2-1.5,4.4-2.9,6.6-4.4c-0.9-0.6-1.8-1.2-2.7-1.8c-0.6-0.4-1.7,0.8-2.2,1.2c-0.5,0.3-1,0.6-1.4,1
  c-0.3,0.2-0.2,0.3-0.2,0.7C10.8,15,10.8,16.2,10.8,17.3L10.8,17.3z M18,11.3c0-0.9,0-1.9,0-2.8c-0.7,0.5-1.4,0.9-2.1,1.4
  C16.6,10.4,17.3,11,18,11.3L18,11.3z"/>
      </svg>